<svg width="48" height="48" viewBox="0 0 48 48" fill="none" xmlns="http://www.w3.org/2000/svg">
<path d="M38.142 38.142C30.332 45.952 17.668 45.952 9.85798 38.142C2.04799 30.332 2.04799 17.668 9.85798 9.85798C17.668 2.04799 30.332 2.04799 38.142 9.85798C45.952 17.668 45.952 30.332 38.142 38.142Z" fill="url(#paint0_linear_6679_66)"/>
<path opacity="0.05" d="M28.0001 24V16C28.0001 14.895 27.1051 14 26.0001 14H22.0001C20.8951 14 20.0001 14.895 20.0001 16V24H16.3521C15.0161 24 14.3461 25.616 15.2911 26.561L22.5861 33.856C23.3671 34.637 24.6331 34.637 25.4141 33.856L32.7091 26.561C33.6541 25.616 32.9851 24 31.6481 24H28.0001Z" fill="black"/>
<path opacity="0.07" d="M27.5001 24.5V16C27.5001 15.172 26.8281 14.5 26.0001 14.5H22.0001C21.1721 14.5 20.5001 15.172 20.5001 16V24.5H16.4791C15.5411 24.5 15.0711 25.634 15.7341 26.298L22.8631 33.428C23.4901 34.055 24.5071 34.055 25.1341 33.428L32.2631 26.298C32.9261 25.635 32.4571 24.5 31.5181 24.5H27.5001Z" fill="black"/>
<path d="M31.393 25H27V16C27 15.448 26.552 15 26 15H22C21.448 15 21 15.448 21 16V25H16.607C16.067 25 15.797 25.653 16.179 26.034L23.143 32.998C23.616 33.471 24.384 33.471 24.857 32.998L31.821 26.034C32.203 25.653 31.933 25 31.393 25Z" fill="white"/>
<path d="M8.64651 12.6463C9.7666 11.0481 10.4181 10.4223 11.6465 9.64626" stroke="white" stroke-linecap="round"/>
<path d="M14 8L14.6465 7.64648" stroke="white" stroke-linecap="round"/>
<defs>
<linearGradient id="paint0_linear_6679_66" x1="23.9917" y1="3.9944" x2="23.9917" y2="43.994" gradientUnits="userSpaceOnUse">
<stop stop-color="#EE266C"/>
<stop offset="1" stop-color="#AC34D5"/>
</linearGradient>
</defs>
</svg>
