<svg width="110" height="111" viewBox="0 0 110 111" fill="none" xmlns="http://www.w3.org/2000/svg">
<path d="M44.1151 59.6806L30.9373 72.8584L38.1417 80.0629L51.3195 66.8851L44.1151 59.6806Z" fill="#AC34D5"/>
<path d="M45.4178 79.3922L17.3305 107.479C13.517 111.293 7.33407 111.293 3.52056 107.479C-0.292955 103.666 -0.292977 97.483 3.52053 93.6695L31.6079 65.5821C33.0788 64.1113 35.4635 64.1113 36.9344 65.5822L45.4178 74.0657C46.8887 75.5365 46.8887 77.9213 45.4178 79.3922Z" fill="#711A1A"/>
<path d="M98.2956 66.095C83.5438 80.8467 59.6413 80.8309 44.9053 66.0948C30.1693 51.3587 30.1536 27.4562 44.9053 12.7045C59.6414 -2.0315 83.5439 -2.01572 98.2799 12.7204C113.016 27.4565 113.032 51.359 98.2956 66.095Z" fill="#3D164B"/>
<path d="M93.3559 61.1583C81.333 73.1812 61.852 73.1683 49.842 61.1582C37.8319 49.148 37.8191 29.6671 49.842 17.6442C61.8521 5.63411 81.333 5.64697 93.3431 17.6571C105.353 29.6673 105.366 49.1483 93.3559 61.1583Z" fill="#FA99BB"/>
<path d="M86.8837 24.1082C82.8176 20.0215 77.3837 17.7721 71.5805 17.772C70.4251 17.772 69.4902 16.8371 69.4902 15.6818C69.4902 14.5264 70.4251 13.5916 71.5805 13.5916C78.5044 13.5916 84.9915 16.2799 89.8476 21.1606C90.6621 21.9791 90.658 23.3019 89.8395 24.1163C89.0192 24.9325 87.6965 24.9249 86.8837 24.1082Z" fill="white"/>
<path d="M10.1188 2.43955L9.4417 4.52496L7.30212 5.25621C6.0292 5.68955 5.29795 6.04163 5.5417 6.14996C5.75837 6.23121 6.73337 6.5833 7.68129 6.9083L9.41462 7.53121L10.173 9.69788C10.6063 10.9708 10.9584 11.702 11.0667 11.4583C11.148 11.2416 11.5 10.2666 11.825 9.31871L12.448 7.5583L14.5605 6.88121C15.698 6.50205 16.6459 6.12288 16.6459 6.04163C16.6459 5.96038 15.698 5.58121 14.5605 5.20205L12.475 4.52496L11.798 2.43955C11.4188 1.30205 11.0396 0.354129 10.9584 0.354129C10.8771 0.354129 10.498 1.30205 10.1188 2.43955Z" fill="#D00B2A"/>
<path d="M20.4647 7.6125C19.8147 9.21042 19.1376 10.6458 18.9751 10.8083C18.8126 10.9708 17.3772 11.6479 15.7792 12.2979C14.1813 12.9479 12.8542 13.5438 12.8542 13.625C12.8542 13.7062 14.1813 14.3021 15.7792 14.9521C17.3772 15.6021 18.8126 16.2792 18.9751 16.4417C19.1376 16.6042 19.8147 18.0396 20.4647 19.6375C21.1147 21.2354 21.7105 22.5625 21.7917 22.5625C21.873 22.5625 22.4688 21.2354 23.1188 19.6375C23.7688 18.0396 24.4459 16.6042 24.6084 16.4417C24.7709 16.2792 26.2063 15.6021 27.8042 14.9521C29.4022 14.3021 30.7292 13.7062 30.7292 13.625C30.7292 13.5438 29.4022 12.9479 27.8042 12.2979C26.2063 11.6479 24.7709 10.9708 24.6084 10.8083C24.4459 10.6458 23.7688 9.21042 23.1188 7.6125C22.4688 6.01458 21.873 4.6875 21.7917 4.6875C21.7105 4.6875 21.1147 6.01458 20.4647 7.6125Z" fill="#D00B2A"/>
<path d="M10.3895 17.8772C10.0374 19.0417 9.902 19.1772 8.65617 19.6105L7.302 20.0709L8.1145 20.3688C8.57492 20.5313 9.17075 20.7751 9.44159 20.8834C9.7395 21.0188 10.1728 21.6959 10.4437 22.4542C10.9312 23.9167 10.8228 23.9709 11.7166 21.723C11.9062 21.2084 12.3124 20.9376 13.2333 20.6667C13.9103 20.4772 14.4791 20.2334 14.4791 20.1251C14.4791 20.0438 13.9103 19.773 13.2062 19.5563C12.0145 19.1772 11.9062 19.0688 11.527 17.8772C11.3103 17.173 11.0666 16.6042 10.9583 16.6042C10.8499 16.6042 10.6062 17.173 10.3895 17.8772Z" fill="#D00B2A"/>
<path d="M81.6104 84.925C80.9604 86.5229 80.2833 87.9583 80.1208 88.1208C79.9583 88.2833 78.5229 88.9604 76.925 89.6104C75.3271 90.2604 74 90.8563 74 90.9375C74 91.0187 75.3271 91.6146 76.925 92.2646C78.5229 92.9146 79.9583 93.5917 80.1208 93.7542C80.2833 93.9167 80.9604 95.3521 81.6104 96.95C82.2604 98.5479 82.8563 99.875 82.9375 99.875C83.0187 99.875 83.6146 98.5479 84.2646 96.95C84.9146 95.3521 85.5917 93.9167 85.7542 93.7542C85.9167 93.5917 87.3521 92.9146 88.95 92.2646C90.5479 91.6146 91.875 91.0187 91.875 90.9375C91.875 90.8563 90.5479 90.2604 88.95 89.6104C87.3521 88.9604 85.9167 88.2833 85.7542 88.1208C85.5917 87.9583 84.9146 86.5229 84.2646 84.925C83.6146 83.3271 83.0187 82 82.9375 82C82.8563 82 82.2604 83.3271 81.6104 84.925Z" fill="#D00B2A"/>
<path d="M25.0875 44.2729C24.7354 45.4375 24.6 45.5729 23.3542 46.0063L22 46.4667L22.8125 46.7646C23.2729 46.9271 23.8688 47.1708 24.1396 47.2792C24.4375 47.4146 24.8708 48.0917 25.1417 48.85C25.6292 50.3125 25.5208 50.3667 26.4146 48.1188C26.6042 47.6042 27.0104 47.3333 27.9313 47.0625C28.6083 46.8729 29.1771 46.6292 29.1771 46.5208C29.1771 46.4396 28.6083 46.1688 27.9042 45.9521C26.7125 45.5729 26.6042 45.4646 26.225 44.2729C26.0083 43.5687 25.7646 43 25.6563 43C25.5479 43 25.3042 43.5687 25.0875 44.2729Z" fill="#D00B2A"/>
<path d="M20.0875 54.2729C19.7354 55.4375 19.6 55.5729 18.3542 56.0063L17 56.4667L17.8125 56.7646C18.2729 56.9271 18.8688 57.1708 19.1396 57.2792C19.4375 57.4146 19.8708 58.0917 20.1417 58.85C20.6292 60.3125 20.5208 60.3667 21.4146 58.1188C21.6042 57.6042 22.0104 57.3333 22.9313 57.0625C23.6083 56.8729 24.1771 56.6292 24.1771 56.5208C24.1771 56.4396 23.6083 56.1688 22.9042 55.9521C21.7125 55.5729 21.6042 55.4646 21.225 54.2729C21.0083 53.5687 20.7646 53 20.6563 53C20.5479 53 20.3042 53.5687 20.0875 54.2729Z" fill="#D00B2A"/>
<path d="M71.0875 83.2729C70.7354 84.4375 70.6 84.5729 69.3542 85.0063L68 85.4667L68.8125 85.7646C69.2729 85.9271 69.8688 86.1708 70.1396 86.2792C70.4375 86.4146 70.8708 87.0917 71.1417 87.85C71.6292 89.3125 71.5208 89.3667 72.4146 87.1188C72.6042 86.6042 73.0104 86.3333 73.9313 86.0625C74.6083 85.8729 75.1771 85.6292 75.1771 85.5208C75.1771 85.4396 74.6083 85.1688 73.9042 84.9521C72.7125 84.5729 72.6042 84.4646 72.225 83.2729C72.0083 82.5687 71.7646 82 71.6563 82C71.5479 82 71.3042 82.5687 71.0875 83.2729Z" fill="#D00B2A"/>
</svg>
