<svg version="1.1" xmlns="http://www.w3.org/2000/svg" xmlns:xlink="http://www.w3.org/1999/xlink" width="48px" height="48px" viewBox="0,0,256,256"><defs><linearGradient x1="41.32" y1="7.387" x2="8.053" y2="35.455" gradientUnits="userSpaceOnUse" id="color-1"><stop offset="0" stop-color="#825656"></stop><stop offset="1" stop-color="#000000"></stop></linearGradient><linearGradient x1="19.999" y1="9.109" x2="28.44" y2="36.308" gradientUnits="userSpaceOnUse" id="color-2"><stop offset="0" stop-color="#ac34d5"></stop><stop offset="1" stop-color="#971620"></stop></linearGradient><linearGradient x1="24" y1="36.992" x2="24" y2="41.008" gradientUnits="userSpaceOnUse" id="color-3"><stop offset="0" stop-color="#711a1a"></stop><stop offset="0.23" stop-color="#711a1a"></stop><stop offset="0.367" stop-color="#971620"></stop></linearGradient></defs><g fill="none" fill-rule="nonzero" stroke="none" stroke-width="1" stroke-linecap="butt" stroke-linejoin="miter" stroke-miterlimit="10" stroke-dasharray="" stroke-dashoffset="0" font-family="none" font-weight="none" font-size="none" text-anchor="none" style="mix-blend-mode: normal"><g transform="scale(5.33333,5.33333)"><path d="M4,37h40c1.105,0 2,-0.895 2,-2v-26c0,-1.105 -0.895,-2 -2,-2h-40c-1.105,0 -2,0.895 -2,2v26c0,1.105 0.895,2 2,2z" fill="url(#color-1)"></path><rect x="4" y="9" width="40" height="26" fill="url(#color-2)"></rect><path d="M37.5,39h-7.5v-2h-12v2h-7.5c-0.276,0 -0.5,0.224 -0.5,0.5v1c0,0.276 0.224,0.5 0.5,0.5h27c0.276,0 0.5,-0.224 0.5,-0.5v-1c0,-0.276 -0.224,-0.5 -0.5,-0.5z" fill="url(#color-3)"></path></g></g></svg>